<mxfile host="app.diagrams.net" modified="2023-06-09T18:35:48.427Z" agent="Mozilla/5.0 (Windows NT 10.0; Win64; x64) AppleWebKit/537.36 (KHTML, like Gecko) Chrome/114.0.0.0 Safari/537.36" etag="n1dQN4lEaLIXH6WMD6MD" version="21.3.8" type="device">
  <diagram name="Seite-1" id="JxygMyNou2kxu-n5MnHj">
    <mxGraphModel dx="1195" dy="637" grid="1" gridSize="10" guides="1" tooltips="1" connect="1" arrows="1" fold="1" page="1" pageScale="1" pageWidth="827" pageHeight="1169" math="0" shadow="0">
      <root>
        <mxCell id="0" />
        <mxCell id="1" parent="0" />
        <mxCell id="Cn0hjhaH5CFh1ujyDG1Y-3" style="edgeStyle=orthogonalEdgeStyle;rounded=0;orthogonalLoop=1;jettySize=auto;html=1;entryX=0.5;entryY=0;entryDx=0;entryDy=0;" parent="1" source="Cn0hjhaH5CFh1ujyDG1Y-1" target="Cn0hjhaH5CFh1ujyDG1Y-2" edge="1">
          <mxGeometry relative="1" as="geometry" />
        </mxCell>
        <mxCell id="Cn0hjhaH5CFh1ujyDG1Y-1" value="start" style="strokeWidth=2;html=1;shape=mxgraph.flowchart.start_1;whiteSpace=wrap;" parent="1" vertex="1">
          <mxGeometry x="364" y="90" width="100" height="60" as="geometry" />
        </mxCell>
        <mxCell id="Cn0hjhaH5CFh1ujyDG1Y-5" style="edgeStyle=orthogonalEdgeStyle;rounded=0;orthogonalLoop=1;jettySize=auto;html=1;" parent="1" source="Cn0hjhaH5CFh1ujyDG1Y-2" target="Cn0hjhaH5CFh1ujyDG1Y-4" edge="1">
          <mxGeometry relative="1" as="geometry" />
        </mxCell>
        <mxCell id="Cn0hjhaH5CFh1ujyDG1Y-2" value="load config" style="rounded=1;whiteSpace=wrap;html=1;absoluteArcSize=1;arcSize=14;strokeWidth=2;" parent="1" vertex="1">
          <mxGeometry x="364" y="200" width="100" height="50" as="geometry" />
        </mxCell>
        <mxCell id="Cn0hjhaH5CFh1ujyDG1Y-7" style="edgeStyle=orthogonalEdgeStyle;rounded=0;orthogonalLoop=1;jettySize=auto;html=1;" parent="1" source="Cn0hjhaH5CFh1ujyDG1Y-4" target="Cn0hjhaH5CFh1ujyDG1Y-6" edge="1">
          <mxGeometry relative="1" as="geometry" />
        </mxCell>
        <mxCell id="Cn0hjhaH5CFh1ujyDG1Y-4" value="send multicast to find other nodes" style="rounded=1;whiteSpace=wrap;html=1;absoluteArcSize=1;arcSize=14;strokeWidth=2;" parent="1" vertex="1">
          <mxGeometry x="364" y="280" width="100" height="50" as="geometry" />
        </mxCell>
        <mxCell id="Cn0hjhaH5CFh1ujyDG1Y-9" style="edgeStyle=orthogonalEdgeStyle;rounded=0;orthogonalLoop=1;jettySize=auto;html=1;" parent="1" source="Cn0hjhaH5CFh1ujyDG1Y-6" target="Cn0hjhaH5CFh1ujyDG1Y-8" edge="1">
          <mxGeometry relative="1" as="geometry" />
        </mxCell>
        <mxCell id="Cn0hjhaH5CFh1ujyDG1Y-6" value="wait for current data from other nodes" style="rounded=1;whiteSpace=wrap;html=1;absoluteArcSize=1;arcSize=14;strokeWidth=2;" parent="1" vertex="1">
          <mxGeometry x="364" y="360" width="100" height="50" as="geometry" />
        </mxCell>
        <mxCell id="Cn0hjhaH5CFh1ujyDG1Y-48" style="edgeStyle=elbowEdgeStyle;rounded=0;orthogonalLoop=1;jettySize=auto;html=1;" parent="1" source="KWBgKId3920ljvpc6sAh-10" target="KWBgKId3920ljvpc6sAh-11" edge="1">
          <mxGeometry relative="1" as="geometry">
            <mxPoint x="414.16666666666674" y="750.1666666666667" as="targetPoint" />
          </mxGeometry>
        </mxCell>
        <mxCell id="Cn0hjhaH5CFh1ujyDG1Y-8" value="ready to receive data from clients" style="rounded=1;whiteSpace=wrap;html=1;absoluteArcSize=1;arcSize=14;strokeWidth=2;" parent="1" vertex="1">
          <mxGeometry x="364" y="450" width="100" height="50" as="geometry" />
        </mxCell>
        <mxCell id="Cn0hjhaH5CFh1ujyDG1Y-24" style="edgeStyle=orthogonalEdgeStyle;rounded=0;orthogonalLoop=1;jettySize=auto;html=1;" parent="1" source="Cn0hjhaH5CFh1ujyDG1Y-22" target="Cn0hjhaH5CFh1ujyDG1Y-23" edge="1">
          <mxGeometry relative="1" as="geometry" />
        </mxCell>
        <mxCell id="Cn0hjhaH5CFh1ujyDG1Y-22" value="save data in datastructure" style="rounded=1;whiteSpace=wrap;html=1;absoluteArcSize=1;arcSize=14;strokeWidth=2;" parent="1" vertex="1">
          <mxGeometry x="467" y="1095" width="100" height="50" as="geometry" />
        </mxCell>
        <mxCell id="Cn0hjhaH5CFh1ujyDG1Y-46" style="edgeStyle=elbowEdgeStyle;rounded=0;orthogonalLoop=1;jettySize=auto;html=1;" parent="1" source="Cn0hjhaH5CFh1ujyDG1Y-23" target="Cn0hjhaH5CFh1ujyDG1Y-45" edge="1">
          <mxGeometry relative="1" as="geometry" />
        </mxCell>
        <mxCell id="Cn0hjhaH5CFh1ujyDG1Y-23" value="increase internal event counter by one" style="rounded=1;whiteSpace=wrap;html=1;absoluteArcSize=1;arcSize=14;strokeWidth=2;" parent="1" vertex="1">
          <mxGeometry x="593" y="1095" width="100" height="50" as="geometry" />
        </mxCell>
        <mxCell id="Cn0hjhaH5CFh1ujyDG1Y-27" value="yes" style="text;html=1;strokeColor=none;fillColor=none;align=center;verticalAlign=middle;whiteSpace=wrap;rounded=0;" parent="1" vertex="1">
          <mxGeometry x="164" y="690" width="60" height="30" as="geometry" />
        </mxCell>
        <mxCell id="Cn0hjhaH5CFh1ujyDG1Y-37" style="edgeStyle=elbowEdgeStyle;rounded=0;orthogonalLoop=1;jettySize=auto;html=1;exitX=0.5;exitY=1;exitDx=0;exitDy=0;" parent="1" source="KWBgKId3920ljvpc6sAh-22" target="Cn0hjhaH5CFh1ujyDG1Y-36" edge="1">
          <mxGeometry relative="1" as="geometry">
            <mxPoint x="145" y="837.5" as="sourcePoint" />
          </mxGeometry>
        </mxCell>
        <mxCell id="Cn0hjhaH5CFh1ujyDG1Y-44" style="edgeStyle=elbowEdgeStyle;rounded=0;orthogonalLoop=1;jettySize=auto;html=1;" parent="1" source="Cn0hjhaH5CFh1ujyDG1Y-36" target="Cn0hjhaH5CFh1ujyDG1Y-43" edge="1">
          <mxGeometry relative="1" as="geometry" />
        </mxCell>
        <mxCell id="Cn0hjhaH5CFh1ujyDG1Y-36" value="save data in datastructure" style="rounded=1;whiteSpace=wrap;html=1;absoluteArcSize=1;arcSize=14;strokeWidth=2;" parent="1" vertex="1">
          <mxGeometry x="90" y="900" width="100" height="50" as="geometry" />
        </mxCell>
        <mxCell id="KWBgKId3920ljvpc6sAh-33" style="edgeStyle=orthogonalEdgeStyle;rounded=0;orthogonalLoop=1;jettySize=auto;html=1;exitX=0;exitY=0.5;exitDx=0;exitDy=0;" edge="1" parent="1" source="Cn0hjhaH5CFh1ujyDG1Y-43" target="KWBgKId3920ljvpc6sAh-3">
          <mxGeometry relative="1" as="geometry">
            <mxPoint x="270" y="550" as="targetPoint" />
            <Array as="points">
              <mxPoint x="50" y="1015" />
              <mxPoint x="50" y="550" />
              <mxPoint x="264" y="550" />
            </Array>
          </mxGeometry>
        </mxCell>
        <mxCell id="Cn0hjhaH5CFh1ujyDG1Y-43" value="set internal event counter to counter from other node" style="rounded=1;whiteSpace=wrap;html=1;absoluteArcSize=1;arcSize=14;strokeWidth=2;" parent="1" vertex="1">
          <mxGeometry x="90" y="990" width="100" height="50" as="geometry" />
        </mxCell>
        <mxCell id="KWBgKId3920ljvpc6sAh-36" style="edgeStyle=orthogonalEdgeStyle;rounded=0;orthogonalLoop=1;jettySize=auto;html=1;exitX=0;exitY=0.5;exitDx=0;exitDy=0;entryX=1;entryY=0.5;entryDx=0;entryDy=0;" edge="1" parent="1" source="Cn0hjhaH5CFh1ujyDG1Y-45" target="KWBgKId3920ljvpc6sAh-43">
          <mxGeometry relative="1" as="geometry" />
        </mxCell>
        <mxCell id="Cn0hjhaH5CFh1ujyDG1Y-45" value="replicate data to other nodes" style="rounded=1;whiteSpace=wrap;html=1;absoluteArcSize=1;arcSize=14;strokeWidth=2;" parent="1" vertex="1">
          <mxGeometry x="593" y="945" width="100" height="50" as="geometry" />
        </mxCell>
        <mxCell id="KWBgKId3920ljvpc6sAh-1" value="" style="edgeStyle=elbowEdgeStyle;rounded=0;orthogonalLoop=1;jettySize=auto;html=1;" edge="1" parent="1" source="Cn0hjhaH5CFh1ujyDG1Y-8" target="KWBgKId3920ljvpc6sAh-2">
          <mxGeometry relative="1" as="geometry">
            <mxPoint x="414" y="500" as="sourcePoint" />
            <mxPoint x="414" y="750" as="targetPoint" />
          </mxGeometry>
        </mxCell>
        <mxCell id="KWBgKId3920ljvpc6sAh-4" style="edgeStyle=orthogonalEdgeStyle;rounded=0;orthogonalLoop=1;jettySize=auto;html=1;exitX=0;exitY=0.5;exitDx=0;exitDy=0;entryX=0.5;entryY=0;entryDx=0;entryDy=0;" edge="1" parent="1" source="KWBgKId3920ljvpc6sAh-2" target="KWBgKId3920ljvpc6sAh-3">
          <mxGeometry relative="1" as="geometry" />
        </mxCell>
        <mxCell id="KWBgKId3920ljvpc6sAh-2" value="start server sync threads" style="rounded=1;whiteSpace=wrap;html=1;" vertex="1" parent="1">
          <mxGeometry x="354" y="555" width="120" height="60" as="geometry" />
        </mxCell>
        <mxCell id="KWBgKId3920ljvpc6sAh-6" style="edgeStyle=orthogonalEdgeStyle;rounded=0;orthogonalLoop=1;jettySize=auto;html=1;exitX=0;exitY=0.5;exitDx=0;exitDy=0;entryX=0.5;entryY=0;entryDx=0;entryDy=0;" edge="1" parent="1" source="KWBgKId3920ljvpc6sAh-3" target="KWBgKId3920ljvpc6sAh-3">
          <mxGeometry relative="1" as="geometry">
            <mxPoint x="270" y="580" as="targetPoint" />
            <Array as="points">
              <mxPoint x="136" y="655" />
              <mxPoint x="136" y="570" />
              <mxPoint x="264" y="570" />
            </Array>
          </mxGeometry>
        </mxCell>
        <mxCell id="KWBgKId3920ljvpc6sAh-21" style="edgeStyle=orthogonalEdgeStyle;rounded=0;orthogonalLoop=1;jettySize=auto;html=1;exitX=0.5;exitY=1;exitDx=0;exitDy=0;" edge="1" parent="1" source="KWBgKId3920ljvpc6sAh-3" target="KWBgKId3920ljvpc6sAh-22">
          <mxGeometry relative="1" as="geometry">
            <mxPoint x="145" y="742.5" as="targetPoint" />
          </mxGeometry>
        </mxCell>
        <mxCell id="KWBgKId3920ljvpc6sAh-3" value="update from other node received?" style="rhombus;whiteSpace=wrap;html=1;" vertex="1" parent="1">
          <mxGeometry x="224" y="615" width="80" height="80" as="geometry" />
        </mxCell>
        <mxCell id="KWBgKId3920ljvpc6sAh-9" value="" style="edgeStyle=elbowEdgeStyle;rounded=0;orthogonalLoop=1;jettySize=auto;html=1;" edge="1" parent="1" source="KWBgKId3920ljvpc6sAh-2" target="KWBgKId3920ljvpc6sAh-10">
          <mxGeometry relative="1" as="geometry">
            <mxPoint x="414" y="615" as="sourcePoint" />
            <mxPoint x="414.16666666666674" y="750.1666666666667" as="targetPoint" />
          </mxGeometry>
        </mxCell>
        <mxCell id="KWBgKId3920ljvpc6sAh-10" value="start client thread" style="rounded=1;whiteSpace=wrap;html=1;" vertex="1" parent="1">
          <mxGeometry x="354" y="650" width="120" height="60" as="geometry" />
        </mxCell>
        <mxCell id="KWBgKId3920ljvpc6sAh-15" style="edgeStyle=orthogonalEdgeStyle;rounded=0;orthogonalLoop=1;jettySize=auto;html=1;exitX=1;exitY=0.5;exitDx=0;exitDy=0;entryX=0.5;entryY=0;entryDx=0;entryDy=0;" edge="1" parent="1" source="KWBgKId3920ljvpc6sAh-11" target="KWBgKId3920ljvpc6sAh-11">
          <mxGeometry relative="1" as="geometry">
            <mxPoint x="373" y="740" as="targetPoint" />
            <Array as="points">
              <mxPoint x="487" y="790" />
              <mxPoint x="487" y="730" />
              <mxPoint x="427" y="730" />
            </Array>
          </mxGeometry>
        </mxCell>
        <mxCell id="KWBgKId3920ljvpc6sAh-18" style="edgeStyle=orthogonalEdgeStyle;rounded=0;orthogonalLoop=1;jettySize=auto;html=1;exitX=0;exitY=0.5;exitDx=0;exitDy=0;entryX=0.5;entryY=0;entryDx=0;entryDy=0;" edge="1" parent="1" source="KWBgKId3920ljvpc6sAh-11" target="KWBgKId3920ljvpc6sAh-19">
          <mxGeometry relative="1" as="geometry">
            <mxPoint x="303" y="790" as="targetPoint" />
            <Array as="points">
              <mxPoint x="346" y="790" />
              <mxPoint x="310" y="791" />
            </Array>
          </mxGeometry>
        </mxCell>
        <mxCell id="KWBgKId3920ljvpc6sAh-11" value="new client connected?" style="rhombus;whiteSpace=wrap;html=1;" vertex="1" parent="1">
          <mxGeometry x="386.9966666666667" y="749.9966666666668" width="80" height="80" as="geometry" />
        </mxCell>
        <mxCell id="KWBgKId3920ljvpc6sAh-35" style="edgeStyle=orthogonalEdgeStyle;rounded=0;orthogonalLoop=1;jettySize=auto;html=1;exitX=0.5;exitY=1;exitDx=0;exitDy=0;" edge="1" parent="1" source="KWBgKId3920ljvpc6sAh-19" target="KWBgKId3920ljvpc6sAh-43">
          <mxGeometry relative="1" as="geometry" />
        </mxCell>
        <mxCell id="KWBgKId3920ljvpc6sAh-19" value="start client handle thread" style="rounded=1;whiteSpace=wrap;html=1;" vertex="1" parent="1">
          <mxGeometry x="250" y="840" width="120" height="60" as="geometry" />
        </mxCell>
        <mxCell id="KWBgKId3920ljvpc6sAh-24" style="edgeStyle=orthogonalEdgeStyle;rounded=0;orthogonalLoop=1;jettySize=auto;html=1;exitX=0;exitY=0.5;exitDx=0;exitDy=0;entryX=0.5;entryY=0;entryDx=0;entryDy=0;" edge="1" parent="1" source="KWBgKId3920ljvpc6sAh-22" target="KWBgKId3920ljvpc6sAh-3">
          <mxGeometry relative="1" as="geometry">
            <mxPoint x="260" y="595" as="targetPoint" />
            <Array as="points">
              <mxPoint x="75" y="790" />
              <mxPoint x="75" y="550" />
              <mxPoint x="264" y="550" />
            </Array>
          </mxGeometry>
        </mxCell>
        <mxCell id="KWBgKId3920ljvpc6sAh-22" value="counter from other node higher than own counter?" style="rhombus;whiteSpace=wrap;html=1;" vertex="1" parent="1">
          <mxGeometry x="95" y="740" width="95" height="100" as="geometry" />
        </mxCell>
        <mxCell id="KWBgKId3920ljvpc6sAh-23" value="yes" style="text;html=1;strokeColor=none;fillColor=none;align=center;verticalAlign=middle;whiteSpace=wrap;rounded=0;" vertex="1" parent="1">
          <mxGeometry x="130" y="850" width="60" height="30" as="geometry" />
        </mxCell>
        <mxCell id="KWBgKId3920ljvpc6sAh-25" value="no" style="text;html=1;strokeColor=none;fillColor=none;align=center;verticalAlign=middle;whiteSpace=wrap;rounded=0;" vertex="1" parent="1">
          <mxGeometry x="164" y="630" width="60" height="30" as="geometry" />
        </mxCell>
        <mxCell id="KWBgKId3920ljvpc6sAh-26" value="no" style="text;html=1;strokeColor=none;fillColor=none;align=center;verticalAlign=middle;whiteSpace=wrap;rounded=0;" vertex="1" parent="1">
          <mxGeometry x="60" y="710" width="60" height="30" as="geometry" />
        </mxCell>
        <mxCell id="KWBgKId3920ljvpc6sAh-27" value="no" style="text;html=1;strokeColor=none;fillColor=none;align=center;verticalAlign=middle;whiteSpace=wrap;rounded=0;" vertex="1" parent="1">
          <mxGeometry x="477" y="745" width="60" height="30" as="geometry" />
        </mxCell>
        <mxCell id="KWBgKId3920ljvpc6sAh-28" value="yes" style="text;html=1;strokeColor=none;fillColor=none;align=center;verticalAlign=middle;whiteSpace=wrap;rounded=0;" vertex="1" parent="1">
          <mxGeometry x="317" y="790" width="60" height="30" as="geometry" />
        </mxCell>
        <mxCell id="KWBgKId3920ljvpc6sAh-37" style="edgeStyle=orthogonalEdgeStyle;rounded=0;orthogonalLoop=1;jettySize=auto;html=1;" edge="1" parent="1" source="KWBgKId3920ljvpc6sAh-34" target="Cn0hjhaH5CFh1ujyDG1Y-22">
          <mxGeometry relative="1" as="geometry" />
        </mxCell>
        <mxCell id="KWBgKId3920ljvpc6sAh-41" style="edgeStyle=orthogonalEdgeStyle;rounded=0;orthogonalLoop=1;jettySize=auto;html=1;entryX=1;entryY=0.5;entryDx=0;entryDy=0;" edge="1" parent="1" source="KWBgKId3920ljvpc6sAh-34" target="KWBgKId3920ljvpc6sAh-40">
          <mxGeometry relative="1" as="geometry" />
        </mxCell>
        <mxCell id="KWBgKId3920ljvpc6sAh-34" value="read operation?" style="rhombus;whiteSpace=wrap;html=1;" vertex="1" parent="1">
          <mxGeometry x="353" y="1080" width="80" height="80" as="geometry" />
        </mxCell>
        <mxCell id="KWBgKId3920ljvpc6sAh-38" value="yes" style="text;html=1;strokeColor=none;fillColor=none;align=center;verticalAlign=middle;whiteSpace=wrap;rounded=0;" vertex="1" parent="1">
          <mxGeometry x="304" y="1095" width="60" height="30" as="geometry" />
        </mxCell>
        <mxCell id="KWBgKId3920ljvpc6sAh-39" value="no" style="text;html=1;strokeColor=none;fillColor=none;align=center;verticalAlign=middle;whiteSpace=wrap;rounded=0;" vertex="1" parent="1">
          <mxGeometry x="417" y="1095" width="60" height="30" as="geometry" />
        </mxCell>
        <mxCell id="KWBgKId3920ljvpc6sAh-42" style="edgeStyle=orthogonalEdgeStyle;rounded=0;orthogonalLoop=1;jettySize=auto;html=1;exitX=0.5;exitY=0;exitDx=0;exitDy=0;entryX=0.146;entryY=0.987;entryDx=0;entryDy=0;entryPerimeter=0;" edge="1" parent="1" source="KWBgKId3920ljvpc6sAh-40" target="KWBgKId3920ljvpc6sAh-43">
          <mxGeometry relative="1" as="geometry" />
        </mxCell>
        <mxCell id="KWBgKId3920ljvpc6sAh-40" value="send requested data back" style="rounded=1;whiteSpace=wrap;html=1;" vertex="1" parent="1">
          <mxGeometry x="224" y="1100" width="86" height="40" as="geometry" />
        </mxCell>
        <mxCell id="KWBgKId3920ljvpc6sAh-44" style="edgeStyle=orthogonalEdgeStyle;rounded=0;orthogonalLoop=1;jettySize=auto;html=1;" edge="1" parent="1" source="KWBgKId3920ljvpc6sAh-43" target="KWBgKId3920ljvpc6sAh-34">
          <mxGeometry relative="1" as="geometry" />
        </mxCell>
        <mxCell id="KWBgKId3920ljvpc6sAh-43" value="wait for client messages" style="rounded=1;whiteSpace=wrap;html=1;" vertex="1" parent="1">
          <mxGeometry x="250" y="940" width="120" height="60" as="geometry" />
        </mxCell>
      </root>
    </mxGraphModel>
  </diagram>
</mxfile>
